<?xml version="1.0" standalone="no"?>
<!DOCTYPE svg PUBLIC "-//W3C//DTD SVG 20010904//EN"
 "http://www.w3.org/TR/2001/REC-SVG-20010904/DTD/svg10.dtd">
<svg version="1.0" xmlns="http://www.w3.org/2000/svg"
 width="150.000000pt" height="150.000000pt" viewBox="0 0 150.000000 150.000000"
 preserveAspectRatio="xMidYMid meet">

<g transform="translate(0.000000,150.000000) scale(0.100000,-0.100000)"
fill="#000000" stroke="none">
<path d="M710 1492 c0 -5 -12 -7 -27 -5 -64 9 -313 -73 -298 -98 4 -5 -1 -6
-9 -3 -10 4 -16 1 -16 -8 0 -9 -9 -14 -22 -14 -13 1 -22 -4 -21 -11 2 -7 -3
-12 -10 -10 -6 1 -11 -4 -9 -11 1 -6 -4 -11 -10 -10 -7 2 -12 -3 -10 -10 1 -8
-2 -11 -7 -8 -12 8 -33 -18 -23 -29 4 -5 2 -5 -4 -2 -12 7 -47 -38 -47 -60 0
-7 -3 -10 -7 -8 -12 8 -42 -33 -34 -46 4 -7 3 -10 -3 -6 -13 8 -36 -41 -27
-55 4 -7 2 -8 -4 -4 -13 8 -45 -60 -36 -75 3 -5 0 -8 -7 -7 -12 3 -47 -87 -48
-123 -1 -9 10 -24 23 -32 22 -15 24 -15 21 1 -1 9 6 38 16 65 10 26 16 47 13
47 -3 0 9 27 27 60 17 33 35 60 40 60 4 0 10 14 14 30 4 17 11 30 16 30 5 0 9
5 9 11 0 5 -5 7 -12 3 -7 -4 -8 -3 -4 4 4 6 14 8 24 5 15 -6 15 -5 3 10 -12
15 -12 17 1 12 8 -3 21 1 28 10 7 8 9 15 5 15 -4 0 4 10 19 21 17 13 25 27 21
37 -5 13 -3 13 12 1 15 -13 16 -12 10 10 -4 18 -3 21 5 13 8 -8 18 -3 35 21
13 18 27 32 31 32 4 0 6 4 4 9 -2 5 4 4 12 -3 12 -10 18 -9 34 7 11 11 23 18
25 15 3 -2 16 1 29 8 25 14 30 16 54 18 11 1 14 7 10 17 -5 13 -3 14 6 7 12
-8 44 -10 66 -3 12 4 26 7 40 8 8 1 10 7 6 15 -6 9 -4 9 8 -1 21 -17 141 -6
131 12 -4 6 1 5 10 -3 9 -7 17 -10 17 -6 0 4 6 3 13 -4 8 -6 23 -9 35 -6 12 2
22 0 22 -5 0 -6 10 -10 23 -9 33 0 71 -5 77 -11 7 -8 94 -45 97 -42 2 1 12 -7
23 -18 12 -12 26 -18 32 -14 6 4 8 3 5 -3 -4 -6 5 -19 20 -29 15 -9 36 -25 47
-35 10 -10 22 -16 26 -14 4 3 7 -3 6 -13 0 -9 5 -16 12 -14 6 1 11 -4 10 -10
-2 -7 2 -12 8 -11 7 1 10 -5 7 -15 -2 -11 7 -30 24 -47 15 -16 22 -25 15 -21
-8 5 -5 -8 8 -33 11 -23 24 -40 28 -37 4 2 7 -14 8 -37 0 -22 5 -42 11 -44 7
-3 9 -11 6 -20 -4 -10 -2 -14 4 -10 7 5 9 -1 5 -15 -3 -11 -1 -19 4 -16 9 6
13 -18 14 -90 0 -24 4 -40 10 -37 5 3 12 0 16 -6 4 -7 3 -9 -4 -5 -13 8 -21
-19 -17 -62 3 -27 -9 -96 -29 -174 -3 -9 -18 -44 -35 -78 -17 -34 -28 -67 -24
-73 3 -6 1 -7 -5 -3 -11 7 -48 -51 -44 -67 1 -5 -2 -6 -7 -3 -5 3 -15 -2 -22
-11 -12 -14 -12 -16 1 -8 20 11 6 -3 -53 -49 -41 -33 -46 -40 -35 -54 11 -15
11 -15 -2 -5 -22 17 -95 -37 -77 -57 10 -12 9 -12 -5 -1 -14 10 -24 8 -60 -12
-24 -13 -45 -24 -48 -24 -3 0 -36 -6 -75 -12 -38 -7 -94 -12 -123 -12 -48 0
-52 -2 -40 -17 11 -15 10 -15 -8 0 -16 14 -23 15 -34 5 -10 -9 -11 -9 -6 1 5
8 -3 12 -28 12 -42 0 -31 -2 -107 16 -34 8 -85 27 -113 42 -63 34 -61 32 -118
83 -27 23 -48 38 -48 33 0 -5 -7 2 -16 14 -8 12 -20 20 -25 16 -5 -3 -9 -2 -8
3 3 18 -2 29 -25 55 -12 15 -26 24 -30 21 -4 -4 -4 0 0 10 3 10 1 17 -5 17 -6
0 -10 3 -9 8 2 10 -24 65 -35 73 -5 3 -9 10 -9 15 -1 26 -19 55 -30 48 -10 -6
-10 -5 -1 7 13 16 7 59 -9 59 -5 0 -6 4 -3 10 3 5 -6 12 -20 16 -14 3 -22 11
-18 17 3 5 1 7 -4 4 -12 -8 -5 -57 9 -57 5 0 7 -4 3 -10 -8 -13 5 -61 16 -54
5 3 6 -2 3 -10 -3 -9 -1 -16 5 -16 6 0 8 -7 5 -15 -4 -8 -1 -15 6 -15 6 0 9
-4 5 -9 -3 -6 2 -14 11 -19 9 -5 16 -12 16 -15 0 -19 11 -47 19 -47 5 0 8 -6
6 -13 -1 -6 4 -11 11 -9 8 1 11 -2 6 -9 -4 -7 -1 -17 7 -23 8 -6 19 -20 26
-31 6 -11 16 -19 23 -17 6 1 9 -1 6 -6 -8 -13 53 -72 74 -72 5 0 10 -7 10 -15
0 -8 11 -17 25 -21 14 -3 25 -10 25 -16 0 -5 4 -6 10 -3 5 3 10 1 10 -4 0 -6
7 -11 16 -11 8 0 12 -4 9 -10 -6 -9 8 -14 20 -7 2 1 11 -7 20 -18 9 -11 13
-14 9 -6 -4 7 7 4 24 -9 16 -12 35 -19 41 -16 6 4 11 3 11 -2 0 -5 12 -10 28
-10 15 0 38 -3 52 -7 14 -4 54 -8 90 -10 36 -2 75 -6 88 -9 22 -5 28 2 15 20
-5 5 -1 1 9 -8 12 -14 22 -16 40 -10 12 5 30 7 38 4 11 -4 9 2 -5 19 l-20 24
25 -22 c16 -14 30 -19 39 -14 7 5 21 6 31 4 10 -3 29 1 41 8 13 7 26 14 29 14
30 4 60 17 60 26 0 6 5 7 10 4 6 -3 10 1 10 10 0 9 4 14 9 11 16 -10 144 91
135 106 -3 5 0 7 8 6 7 -2 12 3 11 9 -2 7 3 12 10 10 6 -1 11 5 9 13 -2 8 0
12 4 8 4 -4 13 -3 21 3 11 10 11 15 1 27 -9 11 -9 14 -1 9 11 -7 51 36 54 58
1 6 10 16 21 24 11 7 17 19 14 27 -3 8 -1 14 3 14 16 0 30 57 18 70 -9 10 -9
11 0 6 11 -6 25 8 29 29 1 6 6 19 10 29 6 15 4 18 -7 12 -8 -4 -6 -1 3 7 14
11 15 16 5 27 -8 9 -8 11 0 6 7 -4 13 10 17 41 9 66 2 196 -10 200 -6 2 -9 21
-7 43 2 23 -1 40 -8 40 -5 0 -8 4 -5 8 3 5 -2 22 -10 38 -9 16 -15 31 -15 34
2 13 -11 40 -19 40 -5 0 -7 9 -5 20 2 12 -2 23 -10 27 -8 3 -13 9 -10 13 8 12
-72 135 -88 134 -8 -1 -14 6 -13 15 1 9 -6 15 -16 15 -10 -1 -14 4 -11 12 7
18 -16 46 -30 37 -6 -3 -7 -1 -3 5 8 13 -67 55 -79 44 -5 -4 -5 -2 -2 5 9 15
-44 47 -111 67 -30 8 -57 15 -60 14 -4 -1 -14 2 -22 5 -24 10 -131 27 -167 27
-25 0 -32 -4 -27 -12 6 -10 4 -10 -7 0 -15 14 -39 16 -39 4z m-365 -161 c3 -5
2 -12 -3 -15 -5 -3 -9 1 -9 9 0 17 3 19 12 6z m1036 -238 c13 -16 12 -17 -3
-4 -17 13 -22 21 -14 21 2 0 10 -8 17 -17z m36 -88 c0 -8 -4 -12 -9 -9 -5 3
-6 10 -3 15 9 13 12 11 12 -6z m-1317 -11 c0 -8 -19 -13 -24 -6 -3 5 1 9 9 9
8 0 15 -2 15 -3z m1371 -247 c-6 -8 -7 -18 -3 -22 4 -5 1 -5 -6 -1 -10 6 -10
11 -1 22 6 8 14 14 16 14 3 0 0 -6 -6 -13z m-26 -146 c3 -5 2 -12 -3 -15 -5
-3 -9 1 -9 9 0 17 3 19 12 6z m-1184 -348 c13 -16 12 -17 -3 -4 -10 7 -18 15
-18 17 0 8 8 3 21 -13z m950 -40 c13 -16 12 -17 -3 -4 -10 7 -18 15 -18 17 0
8 8 3 21 -13z m-56 -42 c3 -5 2 -12 -3 -15 -5 -3 -9 1 -9 9 0 17 3 19 12 6z
m-234 -108 c13 -16 12 -17 -3 -4 -17 13 -22 21 -14 21 2 0 10 -8 17 -17z
m-271 1 c0 -8 -19 -13 -24 -6 -3 5 1 9 9 9 8 0 15 -2 15 -3z"/>
<path d="M616 1385 c5 -11 2 -13 -10 -9 -9 3 -16 1 -16 -5 0 -9 -5 -9 -21 0
-12 6 -19 7 -16 2 3 -4 -1 -14 -9 -21 -13 -12 -18 -8 -15 11 1 5 -3 6 -9 2 -6
-3 -8 -10 -5 -15 2 -4 -9 -13 -25 -20 -17 -7 -30 -17 -30 -22 0 -7 5 -6 13 1
8 6 17 8 20 4 4 -3 7 -1 7 6 0 7 5 9 10 6 6 -3 10 0 10 7 0 9 3 9 10 -2 5 -8
10 -10 10 -4 0 6 6 11 13 12 12 1 47 9 57 12 3 1 8 2 11 2 4 -1 15 9 25 21 10
12 15 19 10 15 -5 -4 -17 -3 -27 3 -15 7 -17 6 -13 -6z m-36 -29 c0 -2 -7 -7
-16 -10 -8 -3 -12 -2 -9 4 6 10 25 14 25 6z"/>
<path d="M435 1321 c-3 -5 -2 -12 3 -15 5 -3 9 1 9 9 0 17 -3 19 -12 6z"/>
<path d="M422 1160 c-12 -12 -22 -18 -22 -14 0 15 -43 -32 -55 -61 -7 -16 -14
-24 -14 -16 -1 9 -11 1 -24 -17 -13 -17 -28 -28 -32 -24 -5 4 -5 2 -2 -4 3 -6
0 -22 -8 -37 -13 -26 -10 -67 6 -67 5 0 6 7 2 15 -3 10 0 15 8 13 13 -3 15 2
18 45 1 12 6 16 14 11 10 -6 9 -4 0 7 -18 18 -16 34 1 20 17 -15 30 0 35 40 0
5 5 8 10 5 5 -4 7 4 4 16 -4 19 -3 20 6 8 9 -12 11 -13 11 -1 0 8 3 11 7 8 3
-4 17 3 30 15 13 12 23 20 24 17 0 -2 2 -14 5 -27 2 -13 0 -21 -5 -18 -5 3 -7
-4 -4 -16 3 -16 2 -19 -5 -10 -7 10 -14 4 -27 -24 -10 -21 -33 -59 -51 -85
-19 -25 -34 -52 -34 -58 0 -7 -5 -9 -10 -6 -6 3 -13 -1 -16 -9 -3 -9 -10 -13
-16 -10 -5 3 -7 12 -4 20 3 8 1 14 -4 14 -5 0 -10 -6 -13 -12 -2 -7 -3 -6 -2
3 1 9 -1 22 -5 29 -4 7 -8 0 -8 -16 0 -16 7 -38 14 -49 10 -14 14 -15 14 -5 0
13 2 13 10 0 9 -13 10 -13 10 0 0 12 2 13 9 1 7 -11 10 -9 16 9 5 17 9 19 15
9 6 -9 11 -5 15 14 4 15 11 25 15 22 15 -10 55 57 59 98 1 5 5 6 10 2 5 -3 13
0 17 6 4 8 3 9 -4 5 -7 -4 -12 -1 -12 8 0 9 6 15 13 14 7 -2 11 6 9 22 -2 20
-1 22 7 10 6 -8 11 -10 12 -5 6 40 5 56 -3 61 -4 3 -6 10 -2 15 3 5 0 8 -8 7
-7 -2 -12 3 -10 10 3 16 -1 15 -26 -8z m45 -51 c2 -22 -7 -20 -11 3 -4 32 -17
40 -37 22 -25 -23 -56 -29 -38 -8 6 7 15 12 19 9 4 -3 13 2 20 10 11 14 15 14
29 1 9 -9 17 -25 18 -37z m-133 -70 c-3 -5 -10 -7 -15 -3 -5 3 -7 10 -3 15 3
5 10 7 15 3 5 -3 7 -10 3 -15z m85 -6 c-6 -16 -12 -36 -14 -45 -6 -27 -36 -68
-46 -62 -5 3 -13 -5 -18 -18 -6 -13 -10 -17 -10 -9 -1 7 15 36 35 63 19 27 39
60 44 74 5 13 12 24 15 24 2 0 0 -12 -6 -27z m-128 -35 c-4 -13 -6 -30 -4 -38
4 -13 3 -13 -6 0 -9 12 -11 13 -11 1 0 -8 -2 -12 -5 -9 -5 5 23 68 30 68 3 0
1 -10 -4 -22z"/>
<path d="M375 964 c-9 -14 -15 -27 -13 -30 2 -2 12 10 22 26 21 37 15 40 -9 4z"/>
<path d="M1180 1110 c-2 -18 -4 -20 -7 -7 -2 9 -8 17 -13 17 -5 0 -14 -8 -19
-17 -6 -10 -11 -14 -11 -9 0 19 -60 -48 -60 -68 0 -14 -3 -17 -8 -9 -6 9 -16
1 -33 -26 -13 -21 -27 -37 -30 -35 -4 2 -6 -4 -5 -14 0 -10 -5 -16 -13 -14
-12 3 -12 0 -2 -12 8 -10 9 -16 1 -21 -5 -3 -10 -16 -10 -28 1 -26 30 -70 31
-46 0 8 4 6 9 -6 8 -17 9 -17 7 7 -1 15 -5 24 -9 22 -16 -10 -3 47 14 62 9 9
14 23 11 32 -4 10 -2 13 6 8 6 -4 11 -4 10 1 -4 23 2 43 13 41 12 -3 14 3 17
45 1 18 3 19 11 7 7 -11 10 -11 10 -2 0 8 5 10 13 6 9 -6 9 -4 -1 8 -8 10 -9
19 -3 22 5 3 12 0 14 -6 4 -10 6 -10 6 0 1 7 6 10 11 7 6 -4 10 -3 9 2 -5 28
2 36 15 17 8 -11 11 -25 6 -33 -4 -8 -5 -23 -3 -35 3 -14 2 -17 -4 -9 -6 9
-15 1 -28 -25 -28 -52 -72 -117 -90 -132 -8 -7 -14 -24 -14 -39 1 -25 2 -25 9
4 5 21 8 24 10 10 l1 -20 9 20 c5 11 9 16 9 11 1 -5 12 1 25 13 15 14 22 29
19 39 -4 10 -2 13 5 8 15 -9 32 22 32 59 0 8 6 14 13 13 7 -2 11 5 9 16 -2 10
1 15 7 12 5 -3 16 7 25 24 8 17 10 28 5 24 -6 -3 -8 5 -5 20 3 15 1 24 -4 21
-5 -3 -11 5 -13 17 -4 22 -4 22 -7 -2z m14 -52 c-1 -13 -3 -30 -4 -38 -1 -10
-4 -9 -9 5 -5 11 -5 27 0 36 5 9 5 20 1 24 -4 5 -2 5 4 2 6 -3 10 -16 8 -29z
m-128 -60 c4 -7 3 -8 -4 -4 -11 7 -35 -33 -37 -61 0 -6 -9 -20 -19 -32 -12
-13 -17 -30 -14 -45 3 -14 1 -23 -3 -20 -11 6 -12 48 -1 58 4 4 7 11 7 14 1 9
35 74 47 90 13 15 15 15 24 0z m98 -4 c3 -8 2 -12 -3 -9 -12 7 -19 -4 -25 -39
-6 -32 -16 -47 -16 -25 -1 10 -4 9 -11 -4 -5 -9 -8 -21 -5 -26 7 -10 -20 -34
-41 -37 -12 -2 -11 2 4 19 24 28 54 74 72 110 17 32 17 32 25 11z"/>
<path d="M1079 873 c-13 -16 -12 -17 4 -4 16 13 21 21 13 21 -2 0 -10 -8 -17
-17z"/>
<path d="M545 930 c-9 -15 5 -71 16 -64 5 3 7 10 4 15 -9 14 -15 53 -8 45 8
-8 14 -34 14 -58 0 -10 5 -18 10 -18 6 0 8 4 5 9 -7 10 20 9 30 -2 7 -7 65 20
75 35 10 16 20 14 30 -5 6 -9 15 -14 21 -11 8 5 9 1 5 -12 -7 -18 -6 -18 7 -1
13 16 14 15 19 -15 2 -18 1 -38 -4 -44 -5 -6 -5 -15 -1 -19 4 -5 1 -5 -6 -1
-10 6 -10 11 -1 22 9 11 9 17 1 25 -7 5 -10 6 -7 3 2 -4 -3 -20 -11 -36 -13
-25 -18 -28 -32 -17 -14 11 -15 11 -4 -1 21 -24 13 -34 -10 -14 -23 19 -23 19
-6 -1 16 -20 18 -24 18 -46 0 -5 5 -7 10 -4 6 3 10 11 10 16 0 6 -5 7 -12 3
-7 -5 -8 -3 -3 5 5 9 10 10 18 2 7 -7 7 -14 -1 -24 -7 -8 -8 -18 -4 -23 4 -5
-3 -1 -14 9 -19 15 -22 16 -27 3 -4 -9 -1 -18 5 -22 7 -5 8 -2 3 7 -5 8 -1 7
11 -3 19 -17 21 -16 36 17 13 29 13 37 2 46 -15 12 -9 33 7 23 5 -3 7 -10 4
-15 -4 -5 -1 -9 4 -9 6 0 11 6 11 13 0 6 6 24 14 39 10 20 11 29 2 39 -8 9 -7
11 6 6 9 -3 19 0 22 8 3 8 11 13 18 10 7 -3 24 4 38 15 l25 19 -38 -10 c-20
-5 -42 -7 -49 -3 -7 5 -9 2 -6 -8 4 -8 0 -15 -8 -15 -7 0 -11 4 -8 9 4 5 -2
12 -13 14 -10 3 -23 15 -28 27 -11 23 -39 25 -60 3 -15 -14 -93 -41 -100 -34
-3 2 -6 17 -7 31 -2 27 -21 36 -33 17z m192 -32 c4 -28 -6 -18 -12 12 -2 12
-1 20 2 16 4 -4 8 -16 10 -28z"/>
<path d="M589 847 c-43 -32 -51 -277 -9 -277 5 0 10 5 10 11 0 5 -6 7 -12 3
-7 -4 -10 -4 -6 1 4 4 3 17 -3 29 -8 17 -6 16 10 -4 11 -14 21 -28 21 -32 0
-14 42 -3 51 14 5 10 15 18 22 18 20 1 46 45 36 61 -5 8 -9 10 -9 6 0 -4 -9
-3 -21 3 -14 8 -17 15 -10 24 6 8 6 17 0 26 -9 13 -9 13 -7 0 2 -9 -1 -16 -7
-17 -5 0 -9 4 -7 9 1 6 -2 16 -8 22 -5 7 -6 17 -2 21 4 5 1 5 -6 0 -10 -5 -11
-10 -3 -18 23 -23 10 -29 -14 -7 -26 24 -34 46 -12 34 6 -4 9 -4 5 0 -4 5 -2
19 3 33 12 33 0 56 -22 40z m12 -31 c-6 -7 -9 -15 -6 -18 3 -2 -2 -5 -10 -5
-8 0 -11 5 -7 11 4 6 7 14 8 19 1 4 2 10 3 13 0 3 6 2 11 -1 8 -5 8 -11 1 -19z
m103 -159 c6 4 2 -3 -8 -15 -11 -12 -26 -21 -35 -20 -9 2 -15 -2 -14 -9 2 -8
-4 -10 -15 -6 -14 6 -15 4 -5 -8 10 -13 10 -16 -2 -16 -8 0 -13 2 -11 4 2 2
-8 17 -23 34 -14 16 -26 42 -27 58 -1 23 3 28 22 27 27 -2 66 -35 57 -49 -3
-6 -1 -7 5 -3 7 4 12 1 12 -8 0 -9 5 -16 10 -16 6 0 9 5 8 12 -4 15 -69 74
-80 71 -4 -2 -8 2 -8 7 0 6 -5 9 -11 8 -6 -2 -14 4 -16 12 -4 12 -3 12 5 1 6
-8 12 -9 16 -3 3 6 2 13 -4 17 -5 3 -10 10 -10 15 0 4 28 -20 61 -56 34 -35
67 -61 73 -57z"/>
<path d="M579 700 c-9 -30 -3 -52 20 -72 20 -18 22 -18 10 -3 -25 32 -30 53
-11 51 9 -2 18 -9 20 -16 3 -8 0 -10 -9 -5 -8 5 -6 -1 5 -13 10 -12 23 -19 27
-16 13 8 11 14 -3 12 -7 -2 -12 4 -10 13 1 9 -5 22 -13 29 -8 7 -15 9 -15 4 0
-5 -5 -2 -10 6 -5 8 -10 13 -11 10z"/>
<path d="M653 765 c0 -8 4 -12 8 -9 4 2 12 -4 18 -13 6 -10 11 -13 11 -7 0 6
-8 18 -18 27 -15 14 -19 15 -19 2z"/>
<path d="M1296 554 c-5 -14 -9 -14 -24 -3 -9 7 1 -6 23 -29 21 -23 41 -42 44
-42 3 0 -7 13 -22 28 -21 22 -24 31 -15 40 6 6 9 14 6 17 -3 3 -8 -2 -12 -11z"/>
<path d="M1322 565 c4 -4 3 -14 -2 -20 -7 -8 -3 -18 13 -31 22 -19 22 -19 5 2
-13 14 -15 23 -7 31 8 8 7 13 -3 18 -7 5 -10 5 -6 0z"/>
<path d="M1259 527 c6 -8 7 -17 3 -21 -4 -4 -2 -6 5 -4 6 2 10 -1 10 -7 -1 -5
-5 -9 -9 -8 -12 4 -2 -26 15 -45 9 -10 14 -22 10 -27 -5 -4 -2 -5 5 -1 11 6 9
13 -7 30 -16 17 -18 25 -9 34 9 9 17 8 32 -5 12 -10 3 2 -19 25 -36 39 -61 59
-36 29z"/>
<path d="M1290 466 c0 -2 8 -10 18 -17 15 -13 16 -12 3 4 -13 16 -21 21 -21
13z"/>
<path d="M1241 436 c-8 -10 -9 -16 -1 -21 6 -4 9 -2 8 3 -2 6 2 10 7 11 6 1
10 -3 10 -8 0 -6 7 -16 15 -23 12 -11 12 -11 2 3 -6 9 -10 18 -7 21 3 3 -1 10
-8 17 -11 9 -17 8 -26 -3z"/>
<path d="M473 405 c0 -8 4 -12 9 -9 5 3 6 10 3 15 -9 13 -12 11 -12 -6z"/>
<path d="M1214 398 c-4 -7 -4 -10 1 -6 4 4 14 3 22 -3 7 -6 13 -8 13 -4 0 4 8
1 18 -6 15 -13 16 -12 3 4 -8 9 -16 15 -19 12 -3 -3 -11 0 -18 6 -9 7 -14 6
-20 -3z"/>
<path d="M1190 365 c-7 -9 -6 -16 5 -25 8 -7 15 -9 15 -5 0 4 8 1 18 -6 15
-11 15 -11 4 1 -7 8 -17 15 -22 15 -6 0 -10 5 -10 10 0 15 23 12 38 -5 11 -13
12 -12 4 4 -12 23 -37 29 -52 11z"/>
<path d="M1150 315 c-12 -13 -27 -22 -31 -19 -5 3 -9 1 -9 -5 0 -5 -16 -19
-36 -32 -34 -20 -113 -90 -86 -75 12 7 17 -6 5 -17 -12 -12 -34 15 -23 28 7 9
6 16 -6 26 -19 15 -47 21 -38 8 3 -5 9 -7 14 -4 4 3 13 -2 19 -9 9 -10 9 -16
1 -21 -8 -5 -6 -13 6 -26 9 -10 22 -15 28 -12 10 6 25 10 64 15 6 1 12 6 12
11 0 6 3 8 6 4 7 -6 7 -6 77 54 36 32 45 45 36 55 -6 7 -18 10 -27 7 -15 -6
-15 -5 -3 10 13 16 15 16 31 2 15 -13 20 -14 26 -3 4 7 3 10 -1 5 -5 -4 -16 0
-25 8 -15 13 -19 12 -40 -10z"/>
<path d="M1089 315 c-1 -3 -2 -9 -3 -15 0 -5 -5 -9 -11 -7 -5 1 -9 6 -7 10 1
5 -2 6 -8 2 -8 -5 -7 -11 1 -21 13 -16 31 -6 35 21 2 13 -4 22 -7 10z"/>
<path d="M690 296 c0 -2 8 -10 18 -17 15 -13 16 -12 3 4 -13 16 -21 21 -21 13z"/>
<path d="M1030 292 c0 -6 5 -14 10 -17 6 -4 7 -11 4 -17 -4 -7 -2 -8 5 -4 9 6
9 12 -1 24 -7 10 -14 19 -15 21 -2 2 -3 -1 -3 -7z"/>
<path d="M1006 280 c5 -8 9 -18 9 -22 0 -3 3 -9 7 -13 3 -4 5 0 4 9 -1 9 -8
22 -16 29 -10 10 -11 9 -4 -3z"/>
<path d="M983 265 c0 -8 10 -23 21 -32 21 -18 21 -18 4 2 -9 11 -17 24 -16 28
0 5 -2 11 -4 13 -3 2 -5 -3 -5 -11z"/>
<path d="M960 253 c0 -5 10 -18 23 -29 l22 -19 -20 25 c-11 14 -21 27 -22 29
-2 2 -3 0 -3 -6z"/>
<path d="M616 238 c3 -5 10 -6 15 -3 13 9 11 12 -6 12 -8 0 -12 -4 -9 -9z"/>
<path d="M945 160 c10 -11 20 -20 23 -20 3 0 -3 9 -13 20 -10 11 -20 20 -23
20 -3 0 3 -9 13 -20z"/>
<path d="M910 166 c0 -2 8 -10 18 -17 15 -13 16 -12 3 4 -13 16 -21 21 -21 13z"/>
<path d="M864 148 c-3 -5 -1 -15 5 -21 9 -9 11 -8 6 5 -7 18 8 19 35 4 12 -7
13 -6 3 4 -16 17 -41 21 -49 8z"/>
<path d="M760 143 c0 -6 8 -17 18 -24 16 -13 16 -13 2 6 -8 11 -16 22 -17 24
-2 2 -3 0 -3 -6z"/>
<path d="M786 140 c3 -3 15 -5 27 -5 12 0 22 -5 22 -12 0 -6 2 -14 6 -17 3 -3
5 5 5 17 0 19 -5 23 -33 23 -17 0 -30 -3 -27 -6z"/>
</g>
</svg>
